<?xml version="1.0" encoding="UTF-8"?>
<!-- Generated by Pixelmator Pro 3.7 -->
<svg width="150" height="160" viewBox="0 0 150 160" xmlns="http://www.w3.org/2000/svg">
    <g id="Group">
        <g id="g1">
            <path id="Path" fill="#761a2c" stroke="none" d="M 92 12.75 C 96.625 10.458313 103.875 11.708313 109.5 14 C 115.125 16.291687 121.375 20.458313 125.75 26.5 C 130.125 32.541687 135.125 40.458313 135.75 50.25 C 136.375 60.041687 130.958374 75.666687 129.5 85.25 C 128.041626 94.833313 127.833374 97.958313 127 107.75 C 126.166626 117.541672 128.666626 136.791656 124.5 144 C 120.333374 151.208328 108.166626 152.041672 102 151 C 95.833374 149.958328 89.583374 147.458328 87.5 137.75 C 85.416626 128.041672 90.625 105.666687 89.5 92.75 C 88.375 79.833313 82.041626 71.083313 80.75 60.25 C 79.458374 49.416687 79.875 35.666687 81.75 27.75 C 83.625 19.833313 87.375 15.041687 92 12.75"/>
            <path id="path1" fill="none" stroke="#761a2c" stroke-width="0.5" stroke-linecap="round" d="M 92 12.75 C 96.625 10.458313 103.875 11.708313 109.5 14 C 115.125 16.291687 121.375 20.458313 125.75 26.5 C 130.125 32.541687 135.125 40.458313 135.75 50.25 C 136.375 60.041687 130.958374 75.666687 129.5 85.25 C 128.041626 94.833313 127.833374 97.958313 127 107.75 C 126.166626 117.541672 128.666626 136.791656 124.5 144 C 120.333374 151.208328 108.166626 152.041672 102 151 C 95.833374 149.958328 89.583374 147.458328 87.5 137.75 C 85.416626 128.041672 90.625 105.666687 89.5 92.75 C 88.375 79.833313 82.041626 71.083313 80.75 60.25 C 79.458374 49.416687 79.875 35.666687 81.75 27.75 C 83.625 19.833313 87.375 15.041687 92 12.75"/>
            <path id="path2" fill="#f4375c" stroke="none" d="M 91.25 12 C 95.875 9.708313 103.125 10.958313 108.75 13.25 C 114.375 15.541687 120.625 19.708313 125 25.75 C 129.375 31.791687 134.375 39.708313 135 49.5 C 135.625 59.291687 130.208374 74.916687 128.75 84.5 C 127.291626 94.083313 127.083374 97.208313 126.25 107 C 125.416626 116.791672 127.916626 136.041656 123.75 143.25 C 119.583374 150.458328 107.416626 151.291672 101.25 150.25 C 95.083374 149.208328 88.833374 146.708328 86.75 137 C 84.666626 127.291672 89.875 104.916687 88.75 92 C 87.625 79.083313 81.291626 70.333313 80 59.5 C 78.708374 48.666687 79.125 34.916687 81 27 C 82.875 19.083313 86.625 14.291687 91.25 12"/>
            <path id="path3" fill="none" stroke="#f4375c" stroke-width="0.5" stroke-linecap="round" d="M 91.25 12 C 95.875 9.708313 103.125 10.958313 108.75 13.25 C 114.375 15.541687 120.625 19.708313 125 25.75 C 129.375 31.791687 134.375 39.708313 135 49.5 C 135.625 59.291687 130.208374 74.916687 128.75 84.5 C 127.291626 94.083313 127.083374 97.208313 126.25 107 C 125.416626 116.791672 127.916626 136.041656 123.75 143.25 C 119.583374 150.458328 107.416626 151.291672 101.25 150.25 C 95.083374 149.208328 88.833374 146.708328 86.75 137 C 84.666626 127.291672 89.875 104.916687 88.75 92 C 87.625 79.083313 81.291626 70.333313 80 59.5 C 78.708374 48.666687 79.125 34.916687 81 27 C 82.875 19.083313 86.625 14.291687 91.25 12"/>
            <path id="path4" fill="#761a2c" stroke="none" d="M 54.5 12.75 C 49.875 10.458313 42.625 11.708313 37 14 C 31.375 16.291687 25.125 20.458313 20.75 26.5 C 16.375 32.541687 11.375 40.458313 10.75 50.25 C 10.125 60.041687 15.541626 75.666687 17 85.25 C 18.458374 94.833313 18.666626 97.958313 19.5 107.75 C 20.333374 117.541672 17.833374 136.791656 22 144 C 26.166626 151.208328 38.333374 152.041672 44.5 151 C 50.666626 149.958328 56.916626 147.458328 59 137.75 C 61.083374 128.041672 55.875 105.666687 57 92.75 C 58.125 79.833313 64.458374 71.083313 65.75 60.25 C 67.041626 49.416687 66.625 35.666687 64.75 27.75 C 62.875 19.833313 59.125 15.041687 54.5 12.75"/>
            <path id="path5" fill="none" stroke="#761a2c" stroke-width="0.5" stroke-linecap="round" d="M 54.5 12.75 C 49.875 10.458313 42.625 11.708313 37 14 C 31.375 16.291687 25.125 20.458313 20.75 26.5 C 16.375 32.541687 11.375 40.458313 10.75 50.25 C 10.125 60.041687 15.541626 75.666687 17 85.25 C 18.458374 94.833313 18.666626 97.958313 19.5 107.75 C 20.333374 117.541672 17.833374 136.791656 22 144 C 26.166626 151.208328 38.333374 152.041672 44.5 151 C 50.666626 149.958328 56.916626 147.458328 59 137.75 C 61.083374 128.041672 55.875 105.666687 57 92.75 C 58.125 79.833313 64.458374 71.083313 65.75 60.25 C 67.041626 49.416687 66.625 35.666687 64.75 27.75 C 62.875 19.833313 59.125 15.041687 54.5 12.75"/>
            <path id="path6" fill="#f4375c" stroke="none" d="M 53.75 12 C 49.125 9.708313 41.875 10.958313 36.25 13.25 C 30.625 15.541687 24.375 19.708313 20 25.75 C 15.625 31.791687 10.625 39.708313 10 49.5 C 9.375 59.291687 14.791626 74.916687 16.25 84.5 C 17.708374 94.083313 17.916626 97.208313 18.75 107 C 19.583374 116.791672 17.083374 136.041656 21.25 143.25 C 25.416626 150.458328 37.583374 151.291672 43.75 150.25 C 49.916626 149.208328 56.166626 146.708328 58.25 137 C 60.333374 127.291672 55.125 104.916687 56.25 92 C 57.375 79.083313 63.708374 70.333313 65 59.5 C 66.291626 48.666687 65.875 34.916687 64 27 C 62.125 19.083313 58.375 14.291687 53.75 12"/>
            <path id="path7" fill="none" stroke="#f4375c" stroke-width="0.5" stroke-linecap="round" d="M 53.75 12 C 49.125 9.708313 41.875 10.958313 36.25 13.25 C 30.625 15.541687 24.375 19.708313 20 25.75 C 15.625 31.791687 10.625 39.708313 10 49.5 C 9.375 59.291687 14.791626 74.916687 16.25 84.5 C 17.708374 94.083313 17.916626 97.208313 18.75 107 C 19.583374 116.791672 17.083374 136.041656 21.25 143.25 C 25.416626 150.458328 37.583374 151.291672 43.75 150.25 C 49.916626 149.208328 56.166626 146.708328 58.25 137 C 60.333374 127.291672 55.125 104.916687 56.25 92 C 57.375 79.083313 63.708374 70.333313 65 59.5 C 66.291626 48.666687 65.875 34.916687 64 27 C 62.125 19.083313 58.375 14.291687 53.75 12"/>
            <path id="path8" fill="#fc9f24" stroke="none" d="M 102.5 35.75 C 102.5 36.992645 101.492676 38 100.25 38 C 99.007324 38 98 36.992645 98 35.75 C 98 34.507355 99.007324 33.5 100.25 33.5 C 101.492676 33.5 102.5 34.507355 102.5 35.75 Z"/>
            <path id="path9" fill="none" stroke="#fc9f24" stroke-width="0.25" stroke-linecap="round" d="M 102.5 35.75 C 102.5 36.992645 101.492676 38 100.25 38 C 99.007324 38 98 36.992645 98 35.75 C 98 34.507355 99.007324 33.5 100.25 33.5 C 101.492676 33.5 102.5 34.507355 102.5 35.75 Z"/>
            <path id="path10" fill="#fc9f24" stroke="none" d="M 47 35.75 C 47 36.992645 45.992676 38 44.75 38 C 43.507324 38 42.5 36.992645 42.5 35.75 C 42.5 34.507355 43.507324 33.5 44.75 33.5 C 45.992676 33.5 47 34.507355 47 35.75 Z"/>
            <path id="path11" fill="none" stroke="#fc9f24" stroke-width="0.25" stroke-linecap="round" d="M 47 35.75 C 47 36.992645 45.992676 38 44.75 38 C 43.507324 38 42.5 36.992645 42.5 35.75 C 42.5 34.507355 43.507324 33.5 44.75 33.5 C 45.992676 33.5 47 34.507355 47 35.75 Z"/>
            <path id="path12" fill="none" stroke="#fc9f24" stroke-width="2.75" stroke-linecap="round" d="M 100.25 35.75 L 103.75 42"/>
            <path id="path13" fill="none" stroke="#fc9f24" stroke-width="2.75" stroke-linecap="round" d="M 44.75 35.75 L 41.25 42"/>
            <path id="path14" fill="#fc9f24" stroke="none" d="M 111.25 47 C 116.291626 52.333313 129.5 65.25 133.25 74 C 137 82.75 136.166626 92.75 133.75 99.5 C 131.333374 106.25 121.25 113.25 118.75 114.5 C 116.25 115.75 116.458374 110.75 118.75 107 C 121.041626 103.25 130.833374 97 132.5 92 C 134.166626 87 132.916626 84.083313 128.75 77 C 124.583374 69.916687 111.458374 54.5 107.5 49.5 C 103.541626 44.5 105.833374 46.583313 105 47 C 104.166626 47.416687 105.625 46.583313 102.5 52 C 99.375 57.416687 89.583374 72.833313 86.25 79.5 C 82.916626 86.166687 80.75 87 82.5 92 C 84.25 97 94.666626 105.75 96.75 109.5 C 98.833374 113.25 97.583374 116.583328 95 114.5 C 92.416626 112.416687 83.125 103.666687 81.25 97 C 79.375 90.333313 80.625 82.833313 83.75 74.5 C 86.875 66.166687 96.791626 52.416687 100 47 C 103.208374 41.583313 101.125 42 103 42 C 104.875 42 106.208374 41.666687 111.25 47"/>
            <path id="path15" fill="none" stroke="#fc9f24" stroke-width="0.5" stroke-linecap="round" d="M 111.25 47 C 116.291626 52.333313 129.5 65.25 133.25 74 C 137 82.75 136.166626 92.75 133.75 99.5 C 131.333374 106.25 121.25 113.25 118.75 114.5 C 116.25 115.75 116.458374 110.75 118.75 107 C 121.041626 103.25 130.833374 97 132.5 92 C 134.166626 87 132.916626 84.083313 128.75 77 C 124.583374 69.916687 111.458374 54.5 107.5 49.5 C 103.541626 44.5 105.833374 46.583313 105 47 C 104.166626 47.416687 105.625 46.583313 102.5 52 C 99.375 57.416687 89.583374 72.833313 86.25 79.5 C 82.916626 86.166687 80.75 87 82.5 92 C 84.25 97 94.666626 105.75 96.75 109.5 C 98.833374 113.25 97.583374 116.583328 95 114.5 C 92.416626 112.416687 83.125 103.666687 81.25 97 C 79.375 90.333313 80.625 82.833313 83.75 74.5 C 86.875 66.166687 96.791626 52.416687 100 47 C 103.208374 41.583313 101.125 42 103 42 C 104.875 42 106.208374 41.666687 111.25 47"/>
            <path id="path16" fill="#fc9f24" stroke="none" d="M 33.75 47 C 28.708374 52.333313 15.5 65.25 11.75 74 C 8 82.75 8.833374 92.75 11.25 99.5 C 13.666626 106.25 23.75 113.25 26.25 114.5 C 28.75 115.75 28.541626 110.75 26.25 107 C 23.958374 103.25 14.166626 97 12.5 92 C 10.833374 87 12.083374 84.083313 16.25 77 C 20.416626 69.916687 33.541626 54.5 37.5 49.5 C 41.458374 44.5 39.166626 46.583313 40 47 C 40.833374 47.416687 39.375 46.583313 42.5 52 C 45.625 57.416687 55.416626 72.833313 58.75 79.5 C 62.083374 86.166687 64.25 87 62.5 92 C 60.75 97 50.333374 105.75 48.25 109.5 C 46.166626 113.25 47.416626 116.583328 50 114.5 C 52.583374 112.416687 61.875 103.666687 63.75 97 C 65.625 90.333313 64.375 82.833313 61.25 74.5 C 58.125 66.166687 48.208374 52.416687 45 47 C 41.791626 41.583313 43.875 42 42 42 C 40.125 42 38.791626 41.666687 33.75 47"/>
            <path id="path17" fill="none" stroke="#fc9f24" stroke-width="0.5" stroke-linecap="round" d="M 33.75 47 C 28.708374 52.333313 15.5 65.25 11.75 74 C 8 82.75 8.833374 92.75 11.25 99.5 C 13.666626 106.25 23.75 113.25 26.25 114.5 C 28.75 115.75 28.541626 110.75 26.25 107 C 23.958374 103.25 14.166626 97 12.5 92 C 10.833374 87 12.083374 84.083313 16.25 77 C 20.416626 69.916687 33.541626 54.5 37.5 49.5 C 41.458374 44.5 39.166626 46.583313 40 47 C 40.833374 47.416687 39.375 46.583313 42.5 52 C 45.625 57.416687 55.416626 72.833313 58.75 79.5 C 62.083374 86.166687 64.25 87 62.5 92 C 60.75 97 50.333374 105.75 48.25 109.5 C 46.166626 113.25 47.416626 116.583328 50 114.5 C 52.583374 112.416687 61.875 103.666687 63.75 97 C 65.625 90.333313 64.375 82.833313 61.25 74.5 C 58.125 66.166687 48.208374 52.416687 45 47 C 41.791626 41.583313 43.875 42 42 42 C 40.125 42 38.791626 41.666687 33.75 47"/>
        </g>
    </g>
</svg>
